<svg xmlns="http://www.w3.org/2000/svg" fill="none" viewBox="0 0 960 60" width="1920" height="120"><path fill="#FFA11F" d="M360 0h60v60h-60z"/><path fill="url(#a)" d="M360 0h15.12v60H360z"/><path fill="url(#b)" d="M390 0h15.12v60H390z"/><path fill="#103CDD" d="M60 0h60v60H60z"/><path fill="url(#c)" d="m60 0 30 30-30 30V0Z" opacity=".5"/><path fill="url(#d)" d="M120 60 90 30l30-30v60Z" opacity=".5"/><path fill="#031165" d="M120 0h60v60h-60z"/><path fill="url(#e)" d="m120 60 30-30 30 30h-60Z"/><path fill="url(#f)" d="m120 30 30-30 30 30h-60Z"/><path fill="#FEA21F" d="M0 0h60v60H0z"/><path fill="url(#g)" fill-rule="evenodd" d="M0 0v.015C.008 16.577 13.437 30 30 30c16.569 0 30-13.431 30-30H0Z" clip-rule="evenodd"/><path fill="url(#h)" fill-rule="evenodd" d="M60 60c0-16.569-13.431-30-30-30C13.431 30 0 43.431 0 60h60Z" clip-rule="evenodd"/><path fill="#103CDD" d="M240 60V0h60v60z"/><path fill="url(#i)" fill-rule="evenodd" d="M300 30V0h-30c0 16.569 13.431 30 30 30Z" clip-rule="evenodd"/><path fill="url(#j)" fill-rule="evenodd" d="M240 30v30h30c0-16.569-13.431-30-30-30Z" clip-rule="evenodd"/><path fill="#031165" d="M300 0h60v60h-60z"/><path fill="url(#k)" fill-rule="evenodd" d="M351.361 29.997c-11.768 0-21.312-9.515-21.36-21.271-.047 11.756-9.592 21.272-21.36 21.272V8.638v42.72-21.36c11.767 0 21.312 9.516 21.36 21.273.047-11.757 9.592-21.273 21.36-21.273Zm0 21.361h-21.36 21.36Z" clip-rule="evenodd"/><path fill="#FFA11F" d="M180 0h60v60h-60z"/><circle cx="210.12" cy="30.119" r="20.76" fill="url(#l)"/><path fill="#103CDD" d="M420 0h60v60h-60z"/><path fill="url(#m)" d="m420 60 30-50.88L480 60h-60Z"/><path fill="#FFA11F" d="M840 0h60v60h-60z"/><path fill="url(#n)" d="M840 0h15.12v60H840z"/><path fill="url(#o)" d="M870 0h15.12v60H870z"/><path fill="#103CDD" d="M540 0h60v60h-60z"/><path fill="url(#p)" d="m540 0 30 30-30 30V0Z" opacity=".5"/><path fill="url(#q)" d="m600 60-30-30 30-30v60Z" opacity=".5"/><path fill="#031165" d="M600 0h60v60h-60z"/><path fill="url(#r)" d="m600 60 30-30 30 30h-60Z"/><path fill="url(#s)" d="m600 30 30-30 30 30h-60Z"/><path fill="#FEA21F" d="M480 0h60v60h-60z"/><path fill="url(#t)" fill-rule="evenodd" d="M480 0v.015C480.008 16.577 493.437 30 510 30c16.569 0 30-13.431 30-30h-60Z" clip-rule="evenodd"/><path fill="url(#u)" fill-rule="evenodd" d="M540 60c0-16.569-13.431-30-30-30-16.569 0-30 13.431-30 30h60Z" clip-rule="evenodd"/><path fill="#103CDD" d="M720 60V0h60v60z"/><path fill="url(#v)" fill-rule="evenodd" d="M780 30V0h-30c0 16.569 13.431 30 30 30Z" clip-rule="evenodd"/><path fill="url(#w)" fill-rule="evenodd" d="M720 30v30h30c0-16.569-13.431-30-30-30Z" clip-rule="evenodd"/><path fill="#031165" d="M780 0h60v60h-60z"/><path fill="url(#x)" fill-rule="evenodd" d="M831.361 29.997c-11.768 0-21.312-9.515-21.36-21.271-.047 11.756-9.592 21.272-21.36 21.272V8.638v42.72-21.36c11.767 0 21.312 9.516 21.36 21.273.047-11.757 9.592-21.273 21.36-21.273Zm0 21.361h-21.36 21.36Z" clip-rule="evenodd"/><path fill="#FFA11F" d="M660 0h60v60h-60z"/><circle cx="690.12" cy="30.119" r="20.76" fill="url(#y)"/><path fill="#103CDD" d="M900 0h60v60h-60z"/><path fill="url(#z)" d="m900 60 30-50.88L960 60h-60Z"/><defs><linearGradient id="a" x1="367.56" x2="367.56" y1="0" y2="60" gradientUnits="userSpaceOnUse"><stop stop-color="#FFA11F"/><stop offset="1" stop-color="#FD4B15"/></linearGradient><linearGradient id="b" x1="397.56" x2="397.56" y1="0" y2="60" gradientUnits="userSpaceOnUse"><stop stop-color="#FFA11F"/><stop offset="1" stop-color="#FD4B15"/></linearGradient><linearGradient id="c" x1="90" x2="60" y1="30" y2="30" gradientUnits="userSpaceOnUse"><stop stop-color="#031165"/><stop offset="1" stop-color="#031165" stop-opacity=".2"/></linearGradient><linearGradient id="d" x1="90" x2="120" y1="30" y2="30" gradientUnits="userSpaceOnUse"><stop stop-color="#1698FE"/><stop offset="1" stop-color="#1698FE" stop-opacity=".2"/></linearGradient><linearGradient id="e" x1="150" x2="150" y1="30" y2="60" gradientUnits="userSpaceOnUse"><stop stop-color="#FE7801"/><stop offset="1" stop-color="#FD4B15"/></linearGradient><linearGradient id="f" x1="150" x2="150" y1="0" y2="30" gradientUnits="userSpaceOnUse"><stop stop-color="#FE7801"/><stop offset="1" stop-color="#FD4B15"/></linearGradient><linearGradient id="g" x1="30" x2="30" y1="30" y2="0" gradientUnits="userSpaceOnUse"><stop stop-color="#FD4B15" stop-opacity=".5"/><stop offset="1" stop-color="#FD4B15"/></linearGradient><linearGradient id="h" x1="30" x2="30" y1="30" y2="60" gradientUnits="userSpaceOnUse"><stop stop-color="#FD4B15" stop-opacity=".5"/><stop offset="1" stop-color="#FD4B15"/></linearGradient><linearGradient id="m" x1="450" x2="450" y1="9.119" y2="59.999" gradientUnits="userSpaceOnUse"><stop stop-color="#1598FE"/><stop offset=".993" stop-color="#1698FE" stop-opacity=".5"/></linearGradient><linearGradient id="n" x1="847.56" x2="847.56" y1="0" y2="60" gradientUnits="userSpaceOnUse"><stop stop-color="#FFA11F"/><stop offset="1" stop-color="#FD4B15"/></linearGradient><linearGradient id="o" x1="877.56" x2="877.56" y1="0" y2="60" gradientUnits="userSpaceOnUse"><stop stop-color="#FFA11F"/><stop offset="1" stop-color="#FD4B15"/></linearGradient><linearGradient id="p" x1="570" x2="540" y1="30" y2="30" gradientUnits="userSpaceOnUse"><stop stop-color="#031165"/><stop offset="1" stop-color="#031165" stop-opacity=".2"/></linearGradient><linearGradient id="q" x1="570" x2="600" y1="30" y2="30" gradientUnits="userSpaceOnUse"><stop stop-color="#1698FE"/><stop offset="1" stop-color="#1698FE" stop-opacity=".2"/></linearGradient><linearGradient id="r" x1="630" x2="630" y1="30" y2="60" gradientUnits="userSpaceOnUse"><stop stop-color="#FE7801"/><stop offset="1" stop-color="#FD4B15"/></linearGradient><linearGradient id="s" x1="630" x2="630" y1="0" y2="30" gradientUnits="userSpaceOnUse"><stop stop-color="#FE7801"/><stop offset="1" stop-color="#FD4B15"/></linearGradient><linearGradient id="t" x1="510" x2="510" y1="30" y2="0" gradientUnits="userSpaceOnUse"><stop stop-color="#FD4B15" stop-opacity=".5"/><stop offset="1" stop-color="#FD4B15"/></linearGradient><linearGradient id="u" x1="510" x2="510" y1="30" y2="60" gradientUnits="userSpaceOnUse"><stop stop-color="#FD4B15" stop-opacity=".5"/><stop offset="1" stop-color="#FD4B15"/></linearGradient><linearGradient id="z" x1="930" x2="930" y1="9.119" y2="59.999" gradientUnits="userSpaceOnUse"><stop stop-color="#1598FE"/><stop offset=".993" stop-color="#1698FE" stop-opacity=".5"/></linearGradient><radialGradient id="i" cx="0" cy="0" r="1" gradientTransform="rotate(135.327 150 61.631) scale(29.699)" gradientUnits="userSpaceOnUse"><stop offset=".485" stop-color="#FE7801"/><stop offset="1" stop-color="#FD4B15"/></radialGradient><radialGradient id="j" cx="0" cy="0" r="1" gradientTransform="rotate(-44.673 193.016 -262.063) scale(29.699)" gradientUnits="userSpaceOnUse"><stop offset=".485" stop-color="#FE7801"/><stop offset="1" stop-color="#FD4B15"/></radialGradient><radialGradient id="k" cx="0" cy="0" r="1" gradientTransform="rotate(90 150.001 180) scale(21.36)" gradientUnits="userSpaceOnUse"><stop stop-color="#FFA11F"/><stop offset=".545" stop-color="#FD4B15"/></radialGradient><radialGradient id="l" cx="0" cy="0" r="1" gradientTransform="rotate(90 90 120.12) scale(20.76)" gradientUnits="userSpaceOnUse"><stop stop-color="#FFA11F"/><stop offset="1" stop-color="#FD4B15"/></radialGradient><radialGradient id="v" cx="0" cy="0" r="1" gradientTransform="rotate(135.327 390 160.241) scale(29.699)" gradientUnits="userSpaceOnUse"><stop offset=".485" stop-color="#FE7801"/><stop offset="1" stop-color="#FD4B15"/></radialGradient><radialGradient id="w" cx="0" cy="0" r="1" gradientTransform="rotate(-44.673 433.016 -846.19) scale(29.699)" gradientUnits="userSpaceOnUse"><stop offset=".485" stop-color="#FE7801"/><stop offset="1" stop-color="#FD4B15"/></radialGradient><radialGradient id="x" cx="0" cy="0" r="1" gradientTransform="rotate(90 390.001 420) scale(21.36)" gradientUnits="userSpaceOnUse"><stop stop-color="#FFA11F"/><stop offset=".545" stop-color="#FD4B15"/></radialGradient><radialGradient id="y" cx="0" cy="0" r="1" gradientTransform="rotate(90 330 360.12) scale(20.76)" gradientUnits="userSpaceOnUse"><stop stop-color="#FFA11F"/><stop offset="1" stop-color="#FD4B15"/></radialGradient></defs></svg>
