<svg xmlns="http://www.w3.org/2000/svg" fill="none" viewBox="0 0 250 500" width="500" height="1000"><path fill="#FFA11F" d="M250 0v250H0V0z"/><path fill="url(#a)" d="M250 0h63v250h-63z" transform="rotate(90 250 0)"/><path fill="url(#b)" d="M250 125h63v250h-63z" transform="rotate(90 250 125)"/><path fill="#103CDD" d="M0 250h250v250H0z"/><path fill="url(#c)" fill-rule="evenodd" d="M250 375v125H125c0-69.036 55.964-125 125-125Z" clip-rule="evenodd"/><path fill="url(#d)" fill-rule="evenodd" d="M0 375V250h125c0 69.036-55.964 125-125 125Z" clip-rule="evenodd"/><defs><radialGradient id="c" cx="0" cy="0" r="1" gradientTransform="rotate(-134.673 229.39 197.805) scale(123.746)" gradientUnits="userSpaceOnUse"><stop offset=".485" stop-color="#FE7801"/><stop offset="1" stop-color="#FD4B15"/></radialGradient><radialGradient id="d" cx="0" cy="0" r="1" gradientTransform="rotate(45.327 -299.355 125) scale(123.746)" gradientUnits="userSpaceOnUse"><stop offset=".485" stop-color="#FE7801"/><stop offset="1" stop-color="#FD4B15"/></radialGradient><linearGradient id="a" x1="281.5" x2="281.5" y1="0" y2="250" gradientUnits="userSpaceOnUse"><stop stop-color="#FFA11F"/><stop offset="1" stop-color="#FD4B15"/></linearGradient><linearGradient id="b" x1="281.5" x2="281.5" y1="125" y2="375" gradientUnits="userSpaceOnUse"><stop stop-color="#FFA11F"/><stop offset="1" stop-color="#FD4B15"/></linearGradient></defs></svg>
