<svg xmlns="http://www.w3.org/2000/svg" fill="none" viewBox="0 0 1000 500" width="2000" height="1000"><path fill="#FFA11F" d="M500 0h250v250H500z"/><path fill="url(#a)" d="M500 0h63v250h-63z"/><path fill="url(#b)" d="M625 0h63v250h-63z"/><path fill="#103CDD" d="M0 250h250v250H0z"/><path fill="url(#c)" d="m0 250 125 125L0 500V250Z" opacity=".5"/><path fill="url(#d)" d="M250 500 125 375l125-125v250Z" opacity=".5"/><path fill="#031165" d="M250 0h250v250H250z"/><path fill="url(#e)" d="m250 250 125-125 125 125H250Z"/><path fill="url(#f)" d="M250 125 375 0l125 125H250Z"/><path fill="#FEA21F" d="M0 0h250v250H0z"/><path fill="url(#g)" fill-rule="evenodd" d="M0 0c0 69.036 55.964 125 125 125S250 69.036 250 0H0Z" clip-rule="evenodd"/><path fill="url(#h)" fill-rule="evenodd" d="M250 250c0-69.036-55.964-125-125-125S0 180.964 0 250h250Z" clip-rule="evenodd"/><path fill="#103CDD" d="M750 250V0h250v250z"/><path fill="url(#i)" fill-rule="evenodd" d="M875 0h125v125c-69.036 0-125-55.964-125-125Z" clip-rule="evenodd"/><path fill="url(#j)" fill-rule="evenodd" d="M875 250H750V125c69.036 0 125 55.964 125 125Z" clip-rule="evenodd"/><path fill="#031165" d="M750 250h250v250H750z"/><path fill="url(#k)" fill-rule="evenodd" d="M875 464c0-49.153-39.847-89-89-89 49.153 0 89-39.847 89-89 0 49.153 39.847 89 89 89-49.153 0-89 39.847-89 89Z" clip-rule="evenodd"/><path fill="#FFA11F" d="M250 250h250v250H250z"/><circle cx="375.5" cy="375.5" r="86.5" fill="url(#l)"/><path fill="#103CDD" d="M500 250h250v250H500z"/><path fill="url(#m)" d="m500 500 125-212 125 212H500Z"/><defs><linearGradient id="a" x1="531.5" x2="531.5" y1="0" y2="250" gradientUnits="userSpaceOnUse"><stop stop-color="#FFA11F"/><stop offset="1" stop-color="#FD4B15"/></linearGradient><linearGradient id="b" x1="656.5" x2="656.5" y1="0" y2="250" gradientUnits="userSpaceOnUse"><stop stop-color="#FFA11F"/><stop offset="1" stop-color="#FD4B15"/></linearGradient><linearGradient id="c" x1="125" x2="0" y1="375" y2="375" gradientUnits="userSpaceOnUse"><stop stop-color="#031165"/><stop offset="1" stop-color="#031165" stop-opacity=".2"/></linearGradient><linearGradient id="d" x1="125" x2="250" y1="375" y2="375" gradientUnits="userSpaceOnUse"><stop stop-color="#1698FE"/><stop offset="1" stop-color="#1698FE" stop-opacity=".2"/></linearGradient><linearGradient id="e" x1="375" x2="375" y1="125" y2="250" gradientUnits="userSpaceOnUse"><stop stop-color="#FE7801"/><stop offset="1" stop-color="#FD4B15"/></linearGradient><linearGradient id="f" x1="375" x2="375" y1="0" y2="125" gradientUnits="userSpaceOnUse"><stop stop-color="#FE7801"/><stop offset="1" stop-color="#FD4B15"/></linearGradient><linearGradient id="g" x1="125" x2="125" y1="125" y2="0" gradientUnits="userSpaceOnUse"><stop stop-color="#FD4B15" stop-opacity=".5"/><stop offset="1" stop-color="#FD4B15"/></linearGradient><linearGradient id="h" x1="125" x2="125" y1="125" y2="250" gradientUnits="userSpaceOnUse"><stop stop-color="#FD4B15" stop-opacity=".5"/><stop offset="1" stop-color="#FD4B15"/></linearGradient><linearGradient id="m" x1="625" x2="625" y1="288" y2="500" gradientUnits="userSpaceOnUse"><stop stop-color="#1598FE"/><stop offset=".993" stop-color="#1698FE" stop-opacity=".5"/></linearGradient><radialGradient id="i" cx="0" cy="0" r="1" gradientTransform="rotate(135.327 500 205.437) scale(123.746)" gradientUnits="userSpaceOnUse"><stop offset=".485" stop-color="#FE7801"/><stop offset="1" stop-color="#FD4B15"/></radialGradient><radialGradient id="j" cx="0" cy="0" r="1" gradientTransform="rotate(-44.673 679.232 -787.697) scale(123.746)" gradientUnits="userSpaceOnUse"><stop offset=".485" stop-color="#FE7801"/><stop offset="1" stop-color="#FD4B15"/></radialGradient><radialGradient id="k" cx="0" cy="0" r="1" gradientTransform="matrix(0 89 -89 0 875 375)" gradientUnits="userSpaceOnUse"><stop stop-color="#FFA11F"/><stop offset=".545" stop-color="#FD4B15"/></radialGradient><radialGradient id="l" cx="0" cy="0" r="1" gradientTransform="rotate(90 0 375.5) scale(86.5)" gradientUnits="userSpaceOnUse"><stop stop-color="#FFA11F"/><stop offset="1" stop-color="#FD4B15"/></radialGradient></defs></svg>
