<svg xmlns="http://www.w3.org/2000/svg" fill="none" viewBox="0 0 500 250" width="1000" height="500"><path fill="#FFA11F" d="M500 250H250V0h250z"/><path fill="url(#a)" d="M500 250h63v250h-63z" transform="rotate(-180 500 250)"/><path fill="url(#b)" d="M375 250h63v250h-63z" transform="rotate(-180 375 250)"/><path fill="#103CDD" d="M250 0v250H0V0z"/><path fill="url(#c)" fill-rule="evenodd" d="M125 250H0V125c69.036 0 125 55.964 125 125Z" clip-rule="evenodd"/><path fill="url(#d)" fill-rule="evenodd" d="M125 0h125v125c-69.036 0-125-55.964-125-125Z" clip-rule="evenodd"/><defs><radialGradient id="c" cx="0" cy="0" r="1" gradientTransform="rotate(-44.673 304.232 125) scale(123.746)" gradientUnits="userSpaceOnUse"><stop offset=".485" stop-color="#FE7801"/><stop offset="1" stop-color="#FD4B15"/></radialGradient><radialGradient id="d" cx="0" cy="0" r="1" gradientTransform="rotate(135.327 125 51.36) scale(123.746)" gradientUnits="userSpaceOnUse"><stop offset=".485" stop-color="#FE7801"/><stop offset="1" stop-color="#FD4B15"/></radialGradient><linearGradient id="a" x1="531.5" x2="531.5" y1="250" y2="500" gradientUnits="userSpaceOnUse"><stop stop-color="#FFA11F"/><stop offset="1" stop-color="#FD4B15"/></linearGradient><linearGradient id="b" x1="406.5" x2="406.5" y1="250" y2="500" gradientUnits="userSpaceOnUse"><stop stop-color="#FFA11F"/><stop offset="1" stop-color="#FD4B15"/></linearGradient></defs></svg>
